<svg width="120" height="40" viewBox="0 0 120 40" fill="none" xmlns="http://www.w3.org/2000/svg">
<g clip-path="url(#clip0_101_261)">
<rect x="0.45" y="0.45" width="119.1" height="39.1" rx="6.55" fill="white" stroke="black" stroke-width="0.9"/>
<path d="M25.0669 19.8893C25.0781 19.0214 25.3093 18.1703 25.739 17.4154C26.1686 16.6605 26.7828 16.0262 27.5243 15.5716C27.0533 14.9007 26.4318 14.3486 25.7093 13.9591C24.9868 13.5696 24.1832 13.3535 23.3623 13.3279C21.6112 13.1446 19.9135 14.3728 19.0212 14.3728C18.1115 14.3728 16.7376 13.3461 15.2581 13.3764C14.3012 13.4072 13.3685 13.6847 12.5511 14.1819C11.7337 14.679 11.0593 15.3788 10.5937 16.2131C8.57696 19.6951 10.0813 24.8125 12.0132 27.6271C12.9798 29.0053 14.1094 30.5448 15.5876 30.4903C17.034 30.4304 17.5743 29.5705 19.3202 29.5705C21.05 29.5705 21.5569 30.4903 23.065 30.4555C24.6171 30.4304 25.595 29.0712 26.5277 27.6799C27.2222 26.6979 27.7566 25.6125 28.1111 24.464C27.2094 24.0837 26.4399 23.4471 25.8985 22.6336C25.3572 21.8201 25.0679 20.8657 25.0669 19.8893Z" fill="black"/>
<path d="M22.2183 11.4768C23.0646 10.4637 23.4815 9.1616 23.3806 7.84692C22.0876 7.98234 20.8934 8.59854 20.0356 9.57274C19.6163 10.0487 19.2951 10.6023 19.0905 11.2021C18.8858 11.8019 18.8017 12.436 18.843 13.0682C19.4897 13.0749 20.1294 12.9351 20.7141 12.6594C21.2988 12.3838 21.8131 11.9794 22.2183 11.4768Z" fill="black"/>
<path d="M42.4205 27.1397H37.6738L36.5339 30.4961H34.5234L39.0194 18.0781H41.1083L45.6043 30.4961H43.5595L42.4205 27.1397ZM38.1655 25.5908H41.928L40.0732 20.1436H40.0212L38.1655 25.5908Z" fill="black"/>
<path d="M55.3141 25.9698C55.3141 28.7833 53.804 30.5909 51.5251 30.5909C50.9479 30.621 50.3737 30.4884 49.8685 30.2083C49.3633 29.9281 48.9474 29.5118 48.6685 29.0069H48.6254V33.4913H46.7618V21.4425H48.5656V22.9483H48.5999C48.8917 22.4459 49.3146 22.0317 49.8237 21.7498C50.3327 21.468 50.9089 21.329 51.4908 21.3477C53.7952 21.3477 55.3141 23.1641 55.3141 25.9698ZM53.3985 25.9698C53.3985 24.1368 52.4486 22.9317 50.9992 22.9317C49.5753 22.9317 48.6176 24.1622 48.6176 25.9698C48.6176 27.794 49.5753 29.0157 50.9992 29.0157C52.4486 29.0157 53.3985 27.8194 53.3985 25.9698Z" fill="black"/>
<path d="M65.3074 25.9698C65.3074 28.7833 63.7968 30.5909 61.5179 30.5909C60.9407 30.621 60.3666 30.4884 59.8614 30.2083C59.3561 29.9281 58.9403 29.5118 58.6613 29.0069H58.6182V33.4913H56.7546V21.4425H58.5585V22.9483H58.5927C58.8845 22.4459 59.3074 22.0317 59.8165 21.7498C60.3255 21.468 60.9017 21.329 61.4836 21.3477C63.788 21.3477 65.3074 23.1641 65.3074 25.9698ZM63.3914 25.9698C63.3914 24.1368 62.4414 22.9317 60.9921 22.9317C59.5682 22.9317 58.6104 24.1622 58.6104 25.9698C58.6104 27.794 59.5682 29.0157 60.9921 29.0157C62.4414 29.0157 63.3914 27.8194 63.3914 25.9698Z" fill="black"/>
<path d="M71.9108 27.0362C72.0489 28.2676 73.2485 29.0762 74.8879 29.0762C76.4587 29.0762 77.5888 28.2676 77.5888 27.1572C77.5888 26.1934 76.9072 25.6162 75.2933 25.2207L73.6794 24.833C71.3928 24.2822 70.3312 23.2158 70.3312 21.4854C70.3312 19.3428 72.2036 17.8711 74.8614 17.8711C77.4938 17.8711 79.2977 19.3428 79.3584 21.4854H77.4772C77.3645 20.2461 76.3372 19.4981 74.836 19.4981C73.3347 19.4981 72.3074 20.2549 72.3074 21.3565C72.3074 22.2344 72.9635 22.751 74.5686 23.1465L75.9406 23.4824C78.4956 24.0849 79.5562 25.1084 79.5562 26.9248C79.5562 29.248 77.7014 30.7031 74.7498 30.7031C71.9881 30.7031 70.1235 29.2822 70.0031 27.0361L71.9108 27.0362Z" fill="black"/>
<path d="M83.5802 19.2998V21.4424H85.3067V22.9141H83.5802V27.9053C83.5802 28.6807 83.9259 29.042 84.6848 29.042C84.8898 29.0384 85.0944 29.0241 85.2979 28.999V30.4619C84.9567 30.5255 84.6098 30.5543 84.2628 30.5478C82.4246 30.5478 81.7078 29.8593 81.7078 28.1035V22.9141H80.3877V21.4424H81.7077V19.2998H83.5802Z" fill="black"/>
<path d="M86.3056 25.9697C86.3056 23.1211 87.988 21.3311 90.6116 21.3311C93.244 21.3311 94.9186 23.1211 94.9186 25.9697C94.9186 28.8262 93.2528 30.6084 90.6116 30.6084C87.9714 30.6084 86.3056 28.8262 86.3056 25.9697ZM93.0197 25.9697C93.0197 24.0156 92.1217 22.8623 90.6116 22.8623C89.1015 22.8623 88.2035 24.0244 88.2035 25.9697C88.2035 27.9316 89.1015 29.0762 90.6116 29.0762C92.1217 29.0762 93.0197 27.9316 93.0197 25.9697Z" fill="black"/>
<path d="M96.4551 21.4424H98.2325V22.9834H98.2757C98.3959 22.5021 98.6787 22.0768 99.0764 21.7789C99.4741 21.481 99.9625 21.3287 100.46 21.3476C100.674 21.3469 100.888 21.3702 101.098 21.417V23.1553C100.827 23.0726 100.544 23.0347 100.261 23.043C99.9899 23.032 99.72 23.0796 99.4695 23.1825C99.2189 23.2854 98.9937 23.4411 98.8092 23.639C98.6247 23.8369 98.4853 24.0723 98.4007 24.3289C98.316 24.5856 98.2881 24.8575 98.3187 25.126V30.4961H96.4551L96.4551 21.4424Z" fill="black"/>
<path d="M109.69 27.8369C109.44 29.4805 107.835 30.6084 105.781 30.6084C103.14 30.6084 101.5 28.8437 101.5 26.0127C101.5 23.1729 103.149 21.3311 105.703 21.3311C108.215 21.3311 109.794 23.0518 109.794 25.7969V26.4336H103.382V26.5459C103.352 26.8791 103.394 27.2148 103.504 27.5306C103.615 27.8464 103.792 28.1352 104.023 28.3778C104.254 28.6203 104.534 28.8111 104.844 28.9374C105.155 29.0637 105.489 29.1226 105.824 29.1103C106.265 29.1515 106.706 29.0498 107.084 28.8203C107.462 28.5909 107.755 28.246 107.921 27.8369L109.69 27.8369ZM103.391 25.1348H107.93C107.946 24.8352 107.901 24.5354 107.796 24.2541C107.691 23.9729 107.529 23.7164 107.32 23.5006C107.111 23.2849 106.859 23.1145 106.581 23.0003C106.302 22.8861 106.004 22.8305 105.703 22.8369C105.399 22.8351 105.098 22.8933 104.818 23.008C104.537 23.1227 104.281 23.2918 104.066 23.5054C103.852 23.7191 103.681 23.973 103.565 24.2527C103.449 24.5323 103.39 24.8321 103.391 25.1348Z" fill="black"/>
<path d="M37.9324 8.73101C38.3231 8.70305 38.7151 8.76191 39.0803 8.90335C39.4454 9.04478 39.7745 9.26526 40.0439 9.54889C40.3132 9.83251 40.5161 10.1722 40.6378 10.5435C40.7595 10.9148 40.7971 11.3083 40.7479 11.6959C40.7479 13.6021 39.7147 14.6979 37.9324 14.6979H35.7711V8.73101H37.9324ZM36.7004 13.854H37.8286C38.1078 13.8707 38.3871 13.825 38.6464 13.7204C38.9057 13.6158 39.1383 13.4548 39.3273 13.2493C39.5163 13.0437 39.657 12.7987 39.7391 12.5321C39.8212 12.2655 39.8426 11.9839 39.8019 11.708C39.8397 11.4332 39.8161 11.1534 39.7327 10.8887C39.6494 10.6241 39.5083 10.3811 39.3197 10.1771C39.1311 9.97322 38.8997 9.81341 38.6419 9.70917C38.3841 9.60494 38.1063 9.55885 37.8286 9.57422H36.7004V13.854Z" fill="black"/>
<path d="M41.7977 12.4444C41.7693 12.1485 41.8032 11.8499 41.8973 11.5679C41.9915 11.2858 42.1436 11.0264 42.3441 10.8065C42.5446 10.5865 42.789 10.4107 43.0617 10.2904C43.3343 10.1702 43.6291 10.108 43.9272 10.108C44.2253 10.108 44.5201 10.1702 44.7927 10.2904C45.0653 10.4107 45.3097 10.5865 45.5102 10.8065C45.7107 11.0264 45.8629 11.2858 45.957 11.5679C46.0511 11.8499 46.0851 12.1485 46.0567 12.4444C46.0856 12.7406 46.0521 13.0396 45.9582 13.3221C45.8644 13.6047 45.7123 13.8645 45.5117 14.0849C45.3112 14.3053 45.0666 14.4814 44.7937 14.602C44.5208 14.7225 44.2256 14.7848 43.9272 14.7848C43.6287 14.7848 43.3336 14.7225 43.0607 14.602C42.7878 14.4814 42.5432 14.3053 42.3427 14.0849C42.1421 13.8645 41.99 13.6047 41.8962 13.3221C41.8023 13.0396 41.7688 12.7406 41.7977 12.4444ZM45.14 12.4444C45.14 11.4683 44.7003 10.8975 43.9287 10.8975C43.154 10.8975 42.7183 11.4683 42.7183 12.4444C42.7183 13.4283 43.1541 13.9947 43.9287 13.9947C44.7004 13.9947 45.14 13.4244 45.14 12.4444Z" fill="black"/>
<path d="M51.718 14.6978H50.7936L49.8603 11.3813H49.7898L48.8604 14.6978H47.9448L46.7001 10.1948H47.604L48.4129 13.6308H48.4795L49.4079 10.1948H50.2628L51.1912 13.6308H51.2617L52.0667 10.1948H52.9578L51.718 14.6978Z" fill="black"/>
<path d="M54.0047 10.1949H54.8626V10.9102H54.9292C55.0421 10.6533 55.2327 10.4379 55.4742 10.2941C55.7158 10.1503 55.9963 10.0852 56.2767 10.1079C56.4964 10.0915 56.717 10.1245 56.9222 10.2046C57.1274 10.2847 57.3118 10.4098 57.4619 10.5707C57.612 10.7315 57.7239 10.924 57.7893 11.1338C57.8547 11.3436 57.8719 11.5654 57.8397 11.7827V14.6977H56.9485V12.0059C56.9485 11.2823 56.6332 10.9224 55.9741 10.9224C55.8249 10.9155 55.676 10.9408 55.5376 10.9966C55.3991 11.0525 55.2744 11.1375 55.172 11.2459C55.0696 11.3543 54.9919 11.4834 54.9442 11.6246C54.8966 11.7657 54.8801 11.9154 54.8959 12.0635V14.6978H54.0047L54.0047 10.1949Z" fill="black"/>
<path d="M59.2597 8.43701H60.1508V14.6978H59.2597V8.43701Z" fill="black"/>
<path d="M61.3896 12.4444C61.3613 12.1484 61.3952 11.8499 61.4894 11.5678C61.5835 11.2857 61.7357 11.0263 61.9362 10.8064C62.1368 10.5864 62.3812 10.4106 62.6538 10.2903C62.9264 10.17 63.2213 10.1079 63.5194 10.1079C63.8175 10.1079 64.1123 10.17 64.385 10.2903C64.6576 10.4106 64.902 10.5864 65.1025 10.8064C65.3031 11.0263 65.4553 11.2857 65.5494 11.5678C65.6435 11.8499 65.6775 12.1484 65.6491 12.4444C65.678 12.7406 65.6444 13.0396 65.5506 13.3221C65.4567 13.6046 65.3046 13.8645 65.104 14.0849C64.9034 14.3053 64.6588 14.4814 64.3859 14.6019C64.113 14.7225 63.8179 14.7847 63.5194 14.7847C63.2209 14.7847 62.9258 14.7225 62.6529 14.6019C62.38 14.4814 62.1354 14.3053 61.9348 14.0849C61.7342 13.8645 61.5821 13.6046 61.4882 13.3221C61.3943 13.0396 61.3608 12.7406 61.3896 12.4444ZM64.732 12.4444C64.732 11.4683 64.2923 10.8975 63.5206 10.8975C62.746 10.8975 62.3102 11.4683 62.3102 12.4444C62.3102 13.4283 62.746 13.9947 63.5206 13.9947C64.2923 13.9947 64.732 13.4244 64.732 12.4444Z" fill="black"/>
<path d="M66.5873 13.4243C66.5873 12.6138 67.1925 12.1465 68.2668 12.0801L69.49 12.0098V11.6211C69.49 11.1455 69.1746 10.877 68.5655 10.877C68.068 10.877 67.7233 11.0591 67.6244 11.3774H66.7616C66.8527 10.604 67.5823 10.1079 68.6066 10.1079C69.7387 10.1079 70.3772 10.6699 70.3772 11.6211V14.6978H69.5193V14.0649H69.4488C69.3057 14.2919 69.1047 14.477 68.8665 14.6012C68.6282 14.7254 68.3611 14.7843 68.0925 14.7719C67.9029 14.7916 67.7113 14.7714 67.5301 14.7127C67.3488 14.654 67.1819 14.5581 67.0401 14.4311C66.8982 14.3042 66.7847 14.149 66.7067 13.9756C66.6287 13.8021 66.5881 13.6144 66.5873 13.4243ZM69.49 13.0395V12.6631L68.3873 12.7334C67.7654 12.7749 67.4834 12.9858 67.4834 13.3828C67.4834 13.7881 67.8359 14.0239 68.3207 14.0239C68.4627 14.0382 68.6062 14.0239 68.7426 13.9819C68.879 13.9398 69.0055 13.8707 69.1146 13.7789C69.2237 13.6871 69.3131 13.5743 69.3776 13.4473C69.4421 13.3202 69.4803 13.1816 69.49 13.0395Z" fill="black"/>
<path d="M71.5484 12.4444C71.5484 11.0215 72.282 10.1201 73.4228 10.1201C73.705 10.1072 73.9851 10.1746 74.2303 10.3145C74.4755 10.4544 74.6758 10.661 74.8076 10.9101H74.8742V8.43701H75.7653V14.6978H74.9114V13.9863H74.8409C74.6989 14.2338 74.4917 14.4378 74.2417 14.5763C73.9918 14.7148 73.7086 14.7825 73.4228 14.772C72.2741 14.772 71.5484 13.8706 71.5484 12.4444ZM72.469 12.4444C72.469 13.3994 72.9205 13.9741 73.6755 13.9741C74.4266 13.9741 74.8908 13.3911 74.8908 12.4483C74.8908 11.5098 74.4218 10.9185 73.6755 10.9185C72.9254 10.9185 72.469 11.4971 72.469 12.4444Z" fill="black"/>
<path d="M79.4524 12.4444C79.424 12.1485 79.458 11.8499 79.5521 11.5679C79.6462 11.2858 79.7984 11.0264 79.9989 10.8065C80.1994 10.5865 80.4438 10.4107 80.7164 10.2904C80.989 10.1702 81.2838 10.108 81.5819 10.108C81.88 10.108 82.1748 10.1702 82.4474 10.2904C82.7201 10.4107 82.9644 10.5865 83.165 10.8065C83.3655 11.0264 83.5176 11.2858 83.6117 11.5679C83.7058 11.8499 83.7398 12.1485 83.7114 12.4444C83.7403 12.7406 83.7068 13.0396 83.6129 13.3221C83.5191 13.6047 83.367 13.8645 83.1664 14.0849C82.9659 14.3053 82.7213 14.4814 82.4484 14.602C82.1755 14.7225 81.8804 14.7848 81.5819 14.7848C81.2835 14.7848 80.9883 14.7225 80.7154 14.602C80.4425 14.4814 80.1979 14.3053 79.9974 14.0849C79.7968 13.8645 79.6447 13.6047 79.5509 13.3221C79.457 13.0396 79.4235 12.7406 79.4524 12.4444ZM82.7948 12.4444C82.7948 11.4683 82.3551 10.8975 81.5834 10.8975C80.8088 10.8975 80.373 11.4683 80.373 12.4444C80.373 13.4283 80.8088 13.9947 81.5834 13.9947C82.3551 13.9947 82.7948 13.4244 82.7948 12.4444Z" fill="black"/>
<path d="M84.9071 10.1949H85.765V10.9102H85.8316C85.9446 10.6533 86.1351 10.4379 86.3767 10.2941C86.6182 10.1503 86.8987 10.0852 87.1791 10.1079C87.3988 10.0915 87.6195 10.1245 87.8246 10.2046C88.0298 10.2847 88.2143 10.4098 88.3644 10.5707C88.5145 10.7315 88.6264 10.924 88.6918 11.1338C88.7571 11.3436 88.7743 11.5654 88.7421 11.7827V14.6977H87.8509V12.0059C87.8509 11.2823 87.5356 10.9224 86.8765 10.9224C86.7273 10.9155 86.5784 10.9408 86.44 10.9966C86.3015 11.0525 86.1768 11.1375 86.0744 11.2459C85.972 11.3543 85.8943 11.4834 85.8467 11.6246C85.799 11.7657 85.7825 11.9154 85.7983 12.0635V14.6978H84.9071V10.1949Z" fill="black"/>
<path d="M93.7777 9.07373V10.2153H94.756V10.9639H93.7777V13.2793C93.7777 13.751 93.9726 13.9575 94.4162 13.9575C94.5298 13.9572 94.6432 13.9503 94.756 13.937V14.6772C94.596 14.7058 94.4338 14.721 94.2713 14.7226C93.2802 14.7226 92.8855 14.375 92.8855 13.5068V10.9638H92.1687V10.2153H92.8855V9.07373H93.7777Z" fill="black"/>
<path d="M95.9733 8.43701H96.8566V10.9185H96.9271C97.0456 10.6591 97.2414 10.4425 97.4877 10.2982C97.7341 10.1539 98.0191 10.0888 98.304 10.1118C98.5225 10.1 98.741 10.1364 98.9439 10.2184C99.1467 10.3004 99.3289 10.4261 99.4775 10.5864C99.626 10.7468 99.7372 10.9378 99.8032 11.146C99.8692 11.3541 99.8883 11.5742 99.8591 11.7905V14.6978H98.9671V12.0098C98.9671 11.2905 98.6311 10.9263 98.0015 10.9263C97.8483 10.9137 97.6942 10.9347 97.55 10.9878C97.4059 11.0408 97.2751 11.1247 97.1668 11.2334C97.0585 11.3421 96.9753 11.4732 96.9231 11.6173C96.8709 11.7614 96.8509 11.9152 96.8645 12.0679V14.6977H95.9733L95.9733 8.43701Z" fill="black"/>
<path d="M105.055 13.4819C104.934 13.8934 104.672 14.2494 104.314 14.4876C103.957 14.7257 103.526 14.8309 103.099 14.7846C102.801 14.7924 102.506 14.7356 102.232 14.6181C101.959 14.5006 101.715 14.3251 101.516 14.104C101.318 13.8829 101.17 13.6213 101.083 13.3375C100.996 13.0537 100.972 12.7544 101.013 12.4604C100.973 12.1655 100.998 11.8656 101.084 11.5809C101.171 11.2962 101.318 11.0335 101.515 10.8104C101.713 10.5873 101.956 10.4092 102.229 10.2879C102.501 10.1667 102.796 10.1053 103.095 10.1079C104.351 10.1079 105.109 10.9639 105.109 12.3779V12.688H101.921V12.7378C101.907 12.903 101.927 13.0693 101.982 13.2261C102.036 13.3828 102.123 13.5265 102.236 13.648C102.349 13.7694 102.486 13.866 102.639 13.9314C102.792 13.9968 102.957 14.0296 103.123 14.0278C103.336 14.0533 103.552 14.015 103.744 13.9178C103.935 13.8206 104.093 13.6688 104.197 13.4819L105.055 13.4819ZM101.921 12.0307H104.201C104.213 11.8796 104.192 11.7278 104.141 11.5851C104.09 11.4423 104.009 11.3119 103.905 11.202C103.8 11.0922 103.673 11.0053 103.533 10.9472C103.393 10.889 103.242 10.8607 103.09 10.8642C102.936 10.8623 102.783 10.8911 102.64 10.9491C102.497 11.007 102.368 11.0929 102.259 11.2016C102.15 11.3103 102.064 11.4397 102.006 11.5821C101.947 11.7245 101.919 11.877 101.921 12.0307Z" fill="black"/>
</g>
<defs>
<clipPath id="clip0_101_261">
<rect width="120" height="40" fill="white"/>
</clipPath>
</defs>
</svg>
