<svg width="120" height="40" viewBox="0 0 120 40" fill="none" xmlns="http://www.w3.org/2000/svg">
<g clip-path="url(#clip0_101_296)">
<rect x="0.45" y="0.45" width="119.1" height="39.1" rx="6.55" fill="white" stroke="black" stroke-width="0.9"/>
<path d="M14.6571 19.2C14.6571 19.2 6.3812 14.68 5.8939 14.416C5.40661 14.152 4.91931 14.312 4.91931 14.864V34.344C4.91931 34.76 5.26854 34.936 5.69086 34.712C6.11319 34.48 14.6571 29.816 14.6571 29.816C14.6571 29.816 15.8185 29.184 16.3951 28.864C17.3291 28.352 19.1971 27.336 19.1971 27.336C19.1971 27.336 23.0548 25.232 23.5665 24.952C24.0782 24.672 24.0294 24.288 23.599 24.072C23.1685 23.856 19.2052 21.672 19.2052 21.672L14.6571 19.2Z" fill="url(#paint0_linear_101_296)"/>
<path d="M16.184 24.4801L5.30102 14.3201C5.04925 14.3761 4.89494 14.5681 4.89494 14.8801V34.3201C4.89494 34.5841 5.00052 34.7441 5.13859 34.8001L16.184 24.4801Z" fill="url(#paint1_linear_101_296)"/>
<mask id="mask0_101_296" style="mask-type:luminance" maskUnits="userSpaceOnUse" x="5" y="24" width="15" height="11">
<path d="M5.5839 34.7443L11.8781 31.3363C13.4294 30.4883 14.6557 29.8163 14.6557 29.8163L19.2282 27.3923L16.1826 24.4803L5.13721 34.8003C5.25903 34.8403 5.47831 34.8163 5.64887 34.7363" fill="white"/>
</mask>
<g mask="url(#mask0_101_296)">
<path d="M14.6395 19.2004C14.6232 19.2404 6.34732 14.7124 5.86815 14.4804C5.38085 14.1764 4.89355 14.3444 4.89355 14.8804V34.4004C4.89355 34.8324 5.24278 35.0084 5.6245 34.8004C6.08743 34.5444 14.6232 29.8804 14.6395 29.8404L19.1876 27.3604C19.1632 27.3924 23.0128 25.2884 23.492 25.0404C24.0443 24.7284 23.9874 24.3444 23.5732 24.1604C23.1265 23.9044 19.1632 21.7204 19.1876 21.6804L14.6395 19.2004Z" fill="url(#paint2_linear_101_296)"/>
</g>
<path d="M5.87603 14.408C5.66487 14.304 5.46183 14.272 5.29128 14.312L16.1823 24.488L19.1955 21.68L14.6555 19.2C14.6555 19.2 10.3754 16.864 7.79273 15.456L5.87603 14.408Z" fill="url(#paint3_linear_101_296)"/>
<path d="M82.1801 27.912L81.2786 28.752C81.0674 28.864 80.8644 29 80.6614 29.088C80.036 29.368 79.4025 29.44 78.834 29.44C78.233 29.44 77.2909 29.4 76.3325 28.712C75.0006 27.784 74.4158 26.176 74.4158 24.784C74.4158 21.896 76.7874 20.48 78.7284 20.48C79.4025 20.48 80.101 20.648 80.6614 21C81.6035 21.616 81.8471 22.416 81.9771 22.848L77.5589 24.616L76.1133 24.728C76.5843 27.096 78.2005 28.472 79.9873 28.472C80.8806 28.472 81.5385 28.184 82.1476 27.888C82.1476 27.888 82.2694 27.824 82.1801 27.912ZM79.4837 23.16C79.8411 23.032 80.0198 22.92 80.0198 22.656C80.0198 21.904 79.1832 21.04 78.1761 21.04C77.4371 21.04 76.0402 21.624 76.0402 23.648C76.0402 23.968 76.0808 24.304 76.097 24.64L79.4837 23.16Z" fill="black"/>
<path d="M72.954 27.808C72.954 28.528 73.0839 28.64 73.7012 28.696C74.026 28.736 74.3428 28.752 74.6595 28.784L73.9692 29.192H70.6637C71.0941 28.632 71.1753 28.576 71.1753 28.208V27.792L71.1672 16.752H69.7053L71.1104 16.08H73.7905C73.2057 16.416 73.0352 16.616 72.9621 17.264L72.954 27.808Z" fill="black"/>
<path d="M67.8292 21.392C68.2597 21.744 69.1531 22.488 69.1531 23.896C69.1531 25.272 68.3734 25.92 67.5856 26.536C67.3419 26.776 67.0577 27.04 67.0577 27.448C67.0577 27.856 67.3419 28.08 67.545 28.248L68.2191 28.768C69.0394 29.456 69.7865 30.088 69.7865 31.368C69.7865 33.112 68.081 34.88 64.8649 34.88C62.1522 34.88 60.8447 33.6 60.8447 32.224C60.8447 31.552 61.1777 30.608 62.2903 29.96C63.4517 29.256 65.0192 29.16 65.8638 29.104C65.6039 28.768 65.3034 28.416 65.3034 27.84C65.3034 27.528 65.4009 27.336 65.4902 27.112C65.2872 27.128 65.076 27.152 64.8892 27.152C62.9076 27.152 61.7868 25.68 61.7868 24.232C61.7868 23.376 62.1766 22.432 62.9888 21.744C64.0527 20.872 65.3278 20.72 66.3349 20.72H70.1926L68.9906 21.392H67.8292ZM66.5135 29.624C66.3592 29.6 66.2699 29.6 66.0831 29.6C65.9125 29.6 64.8892 29.64 64.1014 29.904C63.6872 30.056 62.4771 30.512 62.4771 31.856C62.4771 33.2 63.7766 34.168 65.7988 34.168C67.61 34.168 68.5683 33.296 68.5683 32.128C68.5683 31.152 67.9429 30.64 66.5135 29.624ZM67.0414 26.04C67.4719 25.616 67.5125 25.024 67.5125 24.688C67.5125 23.352 66.7166 21.28 65.1654 21.28C64.6862 21.28 64.1583 21.52 63.8578 21.896C63.541 22.28 63.4517 22.784 63.4517 23.264C63.4517 24.504 64.1826 26.56 65.7826 26.56C66.2455 26.56 66.7491 26.336 67.0414 26.04Z" fill="black"/>
<path d="M56.1666 29.44C53.186 29.44 51.5942 27.12 51.5942 25.024C51.5942 22.576 53.6002 20.48 56.4509 20.48C59.2041 20.48 60.934 22.632 60.934 24.896C60.934 27.104 59.2285 29.44 56.1666 29.44ZM58.4975 27.928C58.9523 27.328 59.066 26.576 59.066 25.848C59.066 24.192 58.2782 21.04 55.9392 21.04C55.322 21.04 54.6966 21.28 54.2418 21.68C53.5109 22.336 53.3728 23.16 53.3728 23.968C53.3728 25.824 54.2905 28.88 56.5727 28.88C57.3199 28.88 58.0671 28.528 58.4975 27.928Z" fill="black"/>
<path d="M46.177 29.44C43.1964 29.44 41.6046 27.12 41.6046 25.024C41.6046 22.576 43.6106 20.48 46.4613 20.48C49.2145 20.48 50.9444 22.632 50.9444 24.896C50.9444 27.104 49.2389 29.44 46.177 29.44ZM48.5079 27.928C48.9628 27.328 49.0765 26.576 49.0765 25.848C49.0765 24.192 48.2805 21.04 45.9496 21.04C45.3243 21.04 44.707 21.28 44.2522 21.68C43.5132 22.336 43.3832 23.16 43.3832 23.968C43.3832 25.824 44.3091 28.88 46.5831 28.88C47.3303 28.88 48.0775 28.528 48.5079 27.928Z" fill="black"/>
<path d="M40.3701 28.888L37.8443 29.464C36.821 29.624 35.9032 29.768 34.9286 29.768C30.0557 29.76 28.2039 26.208 28.2039 23.424C28.2039 20.032 30.8353 16.88 35.3347 16.88C36.2849 16.88 37.2027 17.016 38.0392 17.248C39.363 17.616 39.9803 18.072 40.3701 18.336L38.9001 19.72L38.2829 19.856L38.7214 19.16C38.1204 18.584 37.024 17.512 34.9449 17.512C32.1592 17.512 30.0557 19.608 30.0557 22.672C30.0557 25.96 32.4515 29.056 36.3012 29.056C37.4301 29.056 38.0148 28.832 38.5427 28.624V25.8L35.8789 25.944L37.292 25.192H41.0361L40.5813 25.632C40.4594 25.736 40.4432 25.768 40.4026 25.912C40.3863 26.072 40.3701 26.576 40.3701 26.76V28.888Z" fill="black"/>
<path d="M87.6297 27.992V32.72H86.6795V20.696H87.6297V22.064C88.2469 21.176 89.384 20.48 90.6915 20.48C93.0468 20.48 94.6386 22.248 94.6386 25.04C94.6386 27.816 93.0549 29.616 90.6915 29.616C89.4571 29.616 88.3444 28.984 87.6297 27.992ZM93.6641 25.112C93.6641 22.984 92.5514 21.36 90.5697 21.36C89.3434 21.36 88.1657 22.32 87.6541 23.16V27.048C88.1657 27.888 89.3434 28.88 90.5697 28.88C92.5514 28.88 93.6641 27.24 93.6641 25.112Z" fill="black"/>
<path d="M95.9381 17.36H96.9127V29.44H95.9381V17.36Z" fill="black"/>
<path d="M107.511 31.888C107.714 31.976 108.064 32.032 108.283 32.032C108.868 32.032 109.266 31.8 109.631 30.968L110.321 29.416L106.577 20.64H107.641L110.849 28.248L114.033 20.64H115.105L110.541 31.256C110.07 32.352 109.322 32.88 108.299 32.88C107.991 32.88 107.584 32.824 107.349 32.752L107.511 31.888Z" fill="black"/>
<path d="M104.823 29.432C104.758 29.128 104.709 28.864 104.677 28.64C104.644 28.416 104.628 28.192 104.628 27.96C104.303 28.432 103.84 28.832 103.239 29.144C102.647 29.456 102.078 29.608 101.306 29.608C100.372 29.608 99.6497 29.384 99.138 28.92C98.6263 28.464 98.3665 27.84 98.3665 27.056C98.3665 26.272 98.74 25.632 99.4872 25.144C100.234 24.656 101.201 24.408 102.395 24.408H104.62V23.32C104.62 22.696 104.401 22.2 103.97 21.848C103.54 21.488 102.931 21.312 102.143 21.312C101.42 21.312 100.835 21.48 100.389 21.8C99.9502 22.128 99.7228 22.536 99.7228 23.024H98.7482L98.7319 22.976C98.6994 22.312 98.9999 21.736 99.6578 21.232C100.308 20.728 101.152 20.48 102.2 20.48C103.239 20.48 104.084 20.728 104.718 21.224C105.351 21.712 105.668 22.424 105.668 23.344V27.664C105.668 27.976 105.684 28.272 105.725 28.568C105.765 28.864 105.83 29.152 105.911 29.432H104.823ZM101.428 28.8C102.24 28.8 102.825 28.616 103.418 28.264C104.011 27.912 104.409 27.448 104.62 26.888V25.2H102.379C101.526 25.2 100.819 25.384 100.259 25.768C99.6984 26.144 99.4223 26.6 99.4223 27.136C99.4223 27.64 99.6009 28.04 99.9583 28.344C100.324 28.648 100.811 28.8 101.428 28.8Z" fill="black"/>
<path d="M27.8791 9.22397C27.8791 7.50397 29.276 6.39197 31.014 6.39197C32.1754 6.39197 32.9388 6.90397 33.418 7.52797L32.5653 7.97597C32.2404 7.56797 31.68 7.24797 31.014 7.24797C29.8364 7.24797 28.9511 8.07197 28.9511 9.22397C28.9593 10.368 29.8364 11.2 31.014 11.2C31.6231 11.2 32.1592 10.944 32.4272 10.704V9.86397H30.6404V9.01597H33.4668V11.056C32.882 11.656 32.0455 12.056 31.014 12.056C29.276 12.064 27.8791 10.944 27.8791 9.22397Z" fill="black"/>
<path d="M34.823 11.984V6.47998H38.9732V7.32798H35.887V8.74398H38.9082V9.59998H35.887V11.136H38.9732V11.984H34.823Z" fill="black"/>
<path d="M41.7914 11.984V7.32798H39.9884V6.47998H44.6421V7.32798H42.8391V11.984H41.7914Z" fill="black"/>
<path d="M48.3699 6.47998H49.3851V11.984H48.3699V6.47998Z" fill="black"/>
<path d="M52.2926 11.984V7.32798H50.4896V6.47998H55.1433V7.32798H53.3403V11.984H52.2926Z" fill="black"/>
<path d="M58.6193 9.23202C58.6193 7.60002 59.8944 6.40002 61.7137 6.40002C63.5167 6.40002 64.7999 7.60002 64.7999 9.23202C64.7999 10.864 63.5085 12.064 61.7137 12.064C59.8944 12.064 58.6193 10.864 58.6193 9.23202ZM63.6953 9.18402C63.6953 8.06402 62.9157 7.22402 61.7055 7.22402C60.4873 7.22402 59.7158 8.06402 59.7158 9.18402C59.7158 10.296 60.4873 11.144 61.7055 11.144C62.9157 11.144 63.6953 10.304 63.6953 9.18402Z" fill="black"/>
<path d="M70.1358 11.984L67.0252 8.04798V11.984H65.9775V6.47998H67.0496L70.0952 10.296V6.47998H71.1428V11.984H70.1358Z" fill="black"/>
</g>
<defs>
<linearGradient id="paint0_linear_101_296" x1="9.40857" y1="20.7688" x2="16.1641" y2="30.8332" gradientUnits="userSpaceOnUse">
<stop stop-color="#FF177B"/>
<stop offset="1" stop-color="#FFEC73"/>
</linearGradient>
<linearGradient id="paint1_linear_101_296" x1="12.3442" y1="6.81095" x2="0.259151" y2="32.8645" gradientUnits="userSpaceOnUse">
<stop stop-color="#064AA2"/>
<stop offset="1" stop-color="#63FFD4"/>
</linearGradient>
<linearGradient id="paint2_linear_101_296" x1="16.0942" y1="18.4444" x2="0.969935" y2="27.6297" gradientUnits="userSpaceOnUse">
<stop stop-color="#FF4521"/>
<stop offset="1" stop-color="#8A33DB"/>
</linearGradient>
<linearGradient id="paint3_linear_101_296" x1="7.35062" y1="11.0513" x2="12.6673" y2="25.0809" gradientUnits="userSpaceOnUse">
<stop stop-color="#00A3B5"/>
<stop offset="1" stop-color="#D6FFA1"/>
</linearGradient>
<clipPath id="clip0_101_296">
<rect width="120" height="40" fill="white"/>
</clipPath>
</defs>
</svg>
