<?xml version="1.0" encoding="UTF-8" standalone="no"?>
<svg
   id="Layer_1"
   version="1.1"
   viewBox="0 0 360 240"
   sodipodi:docname="julia_logo_cropped.svg"
   width="360"
   height="240"
   inkscape:version="1.3.2 (091e20e, 2023-11-25)"
   xmlns:inkscape="http://www.inkscape.org/namespaces/inkscape"
   xmlns:sodipodi="http://sodipodi.sourceforge.net/DTD/sodipodi-0.dtd"
   xmlns="http://www.w3.org/2000/svg"
   xmlns:svg="http://www.w3.org/2000/svg">
  <sodipodi:namedview
     id="namedview26"
     pagecolor="#ffffff"
     bordercolor="#000000"
     borderopacity="0.25"
     inkscape:showpageshadow="2"
     inkscape:pageopacity="0.0"
     inkscape:pagecheckerboard="0"
     inkscape:deskcolor="#d1d1d1"
     inkscape:zoom="1.4558275"
     inkscape:cx="171.03675"
     inkscape:cy="173.44088"
     inkscape:window-width="1512"
     inkscape:window-height="868"
     inkscape:window-x="0"
     inkscape:window-y="38"
     inkscape:window-maximized="0"
     inkscape:current-layer="Layer_1" />
  <!-- Generator: Adobe Illustrator 29.6.1, SVG Export Plug-In . SVG Version: 2.1.1 Build 9)  -->
  <defs
     id="defs1">
    <style
       id="style1">
      .st0 {
        fill: #28b45f;
      }

      .st1 {
        fill: #262649;
      }
    </style>
  </defs>
  <g
     id="g5"
     transform="translate(4.8082619,-63.881194)">
    <path
       class="st1"
       d="m 35.27,243.15 c -1.52,0 -2.63,-0.54 -3.34,-1.63 -0.7,-1.09 -1.06,-2.28 -1.06,-3.58 0,-1.85 0.38,-3.64 1.14,-5.38 0.33,-0.87 0.71,-1.68 1.14,-2.44 0.44,-0.87 0.87,-1.44 1.3,-1.71 0.43,-0.27 0.76,-0.41 0.98,-0.41 0.22,0 0.44,0.11 0.65,0.33 l 0.33,0.33 c 0,1.74 0.24,3.07 0.73,3.99 0.49,0.92 1,1.65 1.55,2.2 0.65,0.54 1.41,0.98 2.28,1.3 3.15,0 6.33,-1.28 9.53,-3.83 3.2,-2.55 6.05,-5.4 8.55,-8.55 2.93,-3.58 5.81,-7.71 8.63,-12.38 2.5,-4.34 4.7,-8.33 6.6,-11.97 1.9,-3.64 3.61,-6.81 5.13,-9.53 1.63,-3.15 3.15,-5.97 4.56,-8.47 3.47,-6.41 6.81,-12.76 10.02,-19.06 3.2,-6.3 6.05,-11.94 8.55,-16.94 2.93,-5.86 5.75,-11.45 8.47,-16.78 0.11,-0.11 0.16,-0.33 0.16,-0.65 0,-0.11 -0.11,-0.27 -0.33,-0.49 -0.11,0 -0.22,-0.05 -0.33,-0.16 -2.5,0.22 -4.7,0.52 -6.6,0.9 -1.9,0.38 -3.56,0.84 -4.97,1.38 -1.63,0.54 -3.04,1.2 -4.24,1.95 -1.52,0.87 -2.71,1.63 -3.58,2.28 -0.87,0.65 -1.6,1.17 -2.2,1.55 -0.6,0.38 -1.09,0.68 -1.47,0.9 -0.38,0.22 -0.9,0.33 -1.55,0.33 -0.65,0 -0.98,-0.38 -0.98,-1.14 0,-0.11 0.11,-0.54 0.33,-1.3 0.22,-0.76 0.6,-1.65 1.14,-2.69 0.54,-1.03 1.22,-2.06 2.04,-3.09 0.81,-1.03 1.87,-1.98 3.18,-2.85 1.96,-0.98 4.72,-1.79 8.31,-2.44 3.15,-0.54 7.3,-1.06 12.46,-1.55 5.16,-0.49 11.75,-0.79 19.79,-0.9 0.65,0 0.98,0.22 0.98,0.65 0,0.76 -0.68,1.85 -2.04,3.26 -1.36,1.41 -3.88,2.28 -7.57,2.61 -0.11,0.11 -0.22,0.16 -0.33,0.16 -0.11,0.11 -0.24,0.16 -0.41,0.16 -0.17,0 -0.3,0.11 -0.41,0.33 -1.85,2.5 -4.13,5.86 -6.84,10.1 -2.28,3.69 -5.13,8.47 -8.55,14.33 -3.42,5.86 -7.41,13.19 -11.97,21.99 -3.15,6.73 -6.3,13.09 -9.45,19.06 -1.3,2.61 -2.69,5.24 -4.15,7.9 -1.47,2.66 -2.93,5.21 -4.4,7.66 -1.47,2.45 -2.91,4.7 -4.32,6.76 -1.41,2.06 -2.77,3.8 -4.07,5.21 -3.58,4.24 -7.22,7.98 -10.91,11.24 -3.15,2.82 -6.7,5.38 -10.67,7.66 -3.96,2.28 -7.9,3.42 -11.81,3.42 z"
       id="path1" />
    <path
       class="st1"
       d="m 137.23,201.62 c -0.54,0 -0.92,-0.38 -1.14,-1.14 -0.22,-0.76 -0.33,-1.41 -0.33,-1.96 0,-0.65 0.05,-1.38 0.16,-2.2 0.11,-0.81 0.27,-1.55 0.49,-2.2 0.22,-0.76 0.49,-1.52 0.81,-2.28 l 0.16,-0.33 c 0,-0.22 -0.11,-0.33 -0.33,-0.33 -0.11,0 -0.19,0.03 -0.25,0.08 -0.06,0.06 -0.14,0.08 -0.24,0.08 l -0.16,0.16 c -4.67,3.8 -8.44,6.73 -11.32,8.79 -2.88,2.06 -5.19,3.61 -6.92,4.64 -1.74,1.03 -3.01,1.66 -3.83,1.87 -0.81,0.22 -1.49,0.33 -2.04,0.33 -1.09,0 -1.96,-0.35 -2.61,-1.06 -0.65,-0.71 -1.17,-1.52 -1.55,-2.44 -0.38,-0.92 -0.63,-1.9 -0.73,-2.93 -0.11,-1.03 -0.16,-1.87 -0.16,-2.52 0,-3.36 0.92,-6.98 2.77,-10.83 1.84,-3.85 3.88,-7.44 6.11,-10.75 2.22,-3.31 4.29,-6.08 6.19,-8.31 1.9,-2.22 2.96,-3.45 3.18,-3.67 0.11,0 0.22,-0.05 0.33,-0.16 0.11,0 0.24,-0.03 0.41,-0.08 0.16,-0.05 0.35,-0.08 0.57,-0.08 0.65,0 1.52,0.38 2.61,1.14 1.08,0.76 1.63,1.95 1.63,3.58 -0.22,0.54 -0.79,1.2 -1.71,1.95 -0.92,0.76 -1.87,1.68 -2.85,2.77 -1.09,1.2 -2.39,2.8 -3.91,4.8 -1.52,2.01 -3.01,4.18 -4.48,6.52 -1.47,2.34 -2.74,4.7 -3.83,7.08 -1.09,2.39 -1.79,4.56 -2.12,6.51 0,0.22 0.05,0.49 0.16,0.81 0.11,0.33 0.49,0.49 1.14,0.49 0.87,0 2.42,-0.46 4.64,-1.38 2.22,-0.92 4.78,-2.28 7.66,-4.07 2.88,-1.79 5.84,-3.96 8.88,-6.51 3.04,-2.55 5.86,-5.46 8.47,-8.71 0.33,-0.33 0.76,-0.71 1.3,-1.14 0.54,-0.22 1.19,-0.46 1.95,-0.73 0.76,-0.27 1.74,-0.41 2.93,-0.41 2.06,0.11 3.09,0.49 3.09,1.14 0,0.65 -0.54,1.63 -1.63,2.93 -1.09,1.3 -2.06,2.5 -2.93,3.58 -1.41,2.06 -2.71,4.07 -3.91,6.03 -1.09,1.63 -2.17,3.34 -3.26,5.13 -1.09,1.79 -1.9,3.34 -2.44,4.64 -0.11,0.33 -0.22,0.54 -0.33,0.65 l -0.33,0.33 c -0.11,0.11 -0.22,0.16 -0.33,0.16 z"
       id="path2" />
    <path
       class="st1"
       d="m 209.87,182.24 c -0.22,1.09 -0.54,1.98 -0.98,2.69 -0.44,0.71 -0.81,1.33 -1.14,1.87 -0.43,0.54 -0.87,1.03 -1.3,1.47 -5.32,3.8 -10.26,7 -14.82,9.61 -4.56,2.61 -8.58,4.72 -12.05,6.35 -4.02,1.95 -7.76,3.47 -11.24,4.56 -1.2,0.54 -2.31,0.87 -3.34,0.98 -1.03,0.11 -1.93,0.16 -2.69,0.16 -2.83,0 -4.59,-0.98 -5.29,-2.93 -0.71,-1.95 -1.06,-4.29 -1.06,-7 0,-1.74 0.3,-3.72 0.9,-5.94 0.6,-2.22 1.36,-4.56 2.28,-7 0.92,-2.44 2.01,-4.89 3.26,-7.33 1.25,-2.44 2.52,-4.81 3.83,-7.09 2.93,-5.32 6.35,-10.86 10.26,-16.61 2.39,-3.47 4.91,-7.3 7.57,-11.48 2.66,-4.18 5.18,-8.12 7.57,-11.81 2.71,-4.34 5.43,-8.63 8.14,-12.87 0.33,-0.33 0.71,-0.65 1.14,-0.98 0.43,-0.22 1,-0.43 1.71,-0.65 0.71,-0.22 1.65,-0.33 2.85,-0.33 0.98,0.11 1.9,0.24 2.77,0.41 0.87,0.16 1.3,0.52 1.3,1.06 0,0.11 -0.11,0.38 -0.33,0.81 -0.98,1.41 -2.61,3.8 -4.89,7.17 -1.95,2.82 -4.75,6.82 -8.39,11.97 -3.64,5.16 -8.44,11.92 -14.42,20.28 -4.02,5.65 -7.55,11.02 -10.59,16.12 -2.61,4.45 -5,8.9 -7.17,13.36 -2.17,4.45 -3.26,8.09 -3.26,10.91 0,0.54 0.13,1.25 0.41,2.12 0.27,0.87 1.33,1.3 3.18,1.3 0.98,0 2.39,-0.19 4.23,-0.57 1.84,-0.38 4.45,-1.3 7.82,-2.77 3.36,-1.47 7.63,-3.61 12.79,-6.43 5.16,-2.82 11.59,-6.68 19.3,-11.56 0.11,0 0.22,-0.05 0.33,-0.16 0.22,-0.22 0.49,-0.33 0.81,-0.33 0.32,0 0.49,0.22 0.49,0.65 z"
       id="path3" />
    <path
       class="st1"
       d="m 226.8,168.72 c -0.98,0.76 -2.44,2.23 -4.4,4.4 -1.96,2.17 -3.91,4.59 -5.86,7.25 -1.95,2.66 -3.66,5.35 -5.13,8.06 -1.47,2.71 -2.2,5 -2.2,6.84 0,1.41 0.35,2.31 1.06,2.69 0.71,0.38 1.65,0.57 2.85,0.57 0.54,0 1.14,-0.03 1.79,-0.08 0.65,-0.05 1.25,-0.13 1.79,-0.24 0.54,-0.11 1.08,-0.27 1.63,-0.49 4.12,-1.19 8.33,-2.82 12.62,-4.89 4.29,-2.06 8.22,-4.07 11.81,-6.03 4.24,-2.28 8.36,-4.61 12.38,-7 1.3,-0.87 2.17,-1.3 2.61,-1.3 0.33,0 0.49,0.27 0.49,0.81 -0.33,1.41 -0.95,2.63 -1.87,3.67 -0.92,1.03 -1.87,1.93 -2.85,2.69 -1.2,0.87 -2.44,1.69 -3.75,2.44 -6.95,3.8 -12.57,6.76 -16.86,8.88 -4.29,2.12 -7.68,3.66 -10.18,4.64 -2.82,1.2 -5,1.9 -6.51,2.12 -0.44,0.11 -1.09,0.16 -1.95,0.16 -1.3,0 -2.47,-0.22 -3.5,-0.65 -1.03,-0.43 -1.93,-0.92 -2.69,-1.47 -0.87,-0.65 -1.58,-1.41 -2.12,-2.28 -0.65,-0.76 -1.09,-1.6 -1.3,-2.52 -0.22,-0.92 -0.33,-1.87 -0.33,-2.85 0,-2.39 0.71,-5.13 2.12,-8.22 1.41,-3.09 2.96,-6 4.64,-8.71 1.68,-2.71 3.26,-4.97 4.72,-6.76 1.46,-1.79 2.2,-2.58 2.2,-2.36 1.3,-0.87 2.71,-1.41 4.23,-1.63 1.52,-0.22 2.93,-0.33 4.23,-0.33 0.22,0 0.43,0.06 0.65,0.16 0.54,0.33 0.81,0.54 0.81,0.65 0,0.22 -0.06,0.49 -0.16,0.81 -0.11,0.33 -0.43,0.65 -0.98,0.98 z"
       id="path4" />
    <path
       class="st1"
       d="m 322.08,178.49 c 0,0.98 -0.3,1.87 -0.9,2.69 -0.6,0.81 -1.22,1.49 -1.87,2.04 -0.76,0.65 -1.63,1.2 -2.61,1.63 -5.97,3.15 -11.56,5.97 -16.78,8.47 -2.28,1.09 -4.59,2.12 -6.92,3.09 -2.34,0.98 -4.56,1.87 -6.68,2.69 -2.12,0.81 -4.07,1.47 -5.86,1.95 -1.79,0.49 -3.29,0.73 -4.48,0.73 -1.3,0 -2.34,-0.35 -3.09,-1.06 -0.76,-0.71 -1.33,-1.55 -1.71,-2.52 -0.38,-0.98 -0.63,-2.01 -0.73,-3.09 -0.11,-1.08 -0.16,-2.06 -0.16,-2.93 0,-0.43 -0.11,-0.65 -0.33,-0.65 -0.11,0 -0.19,0.03 -0.24,0.08 -0.06,0.06 -0.14,0.08 -0.24,0.08 l -0.16,0.16 c -1.74,1.41 -3.58,2.8 -5.54,4.15 -1.95,1.36 -3.75,2.63 -5.38,3.83 -1.95,1.3 -3.86,2.61 -5.7,3.91 -1.74,1.2 -3.15,1.96 -4.23,2.28 -1.09,0.33 -1.9,0.49 -2.44,0.49 -0.98,0 -1.82,-0.22 -2.52,-0.65 -0.71,-0.43 -1.3,-0.95 -1.79,-1.55 -0.49,-0.6 -0.84,-1.19 -1.06,-1.79 -0.22,-0.59 -0.33,-1 -0.33,-1.22 0,-0.65 0.27,-1.74 0.81,-3.26 0.54,-1.52 1.9,-3.75 4.07,-6.68 3.58,-4.12 7.17,-7.87 10.75,-11.24 1.52,-1.41 3.12,-2.82 4.8,-4.24 1.68,-1.41 3.36,-2.71 5.05,-3.91 1.68,-1.19 3.36,-2.2 5.05,-3.01 1.68,-0.81 3.28,-1.33 4.8,-1.55 0.98,0 1.96,0.24 2.93,0.73 0.98,0.49 1.82,1.11 2.53,1.87 0.7,0.76 1.3,1.52 1.79,2.28 0.49,0.76 0.73,1.47 0.73,2.12 0,0.65 -0.22,0.98 -0.65,0.98 -0.22,0 -0.44,-0.05 -0.65,-0.16 -0.54,-0.22 -1.14,-0.49 -1.79,-0.81 -0.54,-0.22 -1.17,-0.41 -1.87,-0.57 -0.71,-0.16 -1.44,-0.24 -2.2,-0.24 -1.09,0.11 -2.44,0.54 -4.07,1.3 -1.41,0.65 -3.12,1.66 -5.13,3.01 -2.01,1.36 -4.37,3.23 -7.08,5.62 -0.98,0.87 -2.04,1.85 -3.18,2.93 -1.14,1.09 -2.28,2.23 -3.42,3.42 -1.14,1.2 -2.23,2.39 -3.26,3.58 -1.03,1.2 -1.82,2.28 -2.36,3.26 -0.22,0.33 -0.38,0.6 -0.49,0.81 -0.22,0.65 -0.33,1.03 -0.33,1.14 0,0.54 0.38,0.81 1.14,0.81 0.43,0 1.03,-0.11 1.79,-0.33 0.76,-0.22 1.79,-0.65 3.09,-1.3 2.93,-1.63 5.7,-3.31 8.31,-5.05 2.17,-1.41 4.4,-2.93 6.68,-4.56 2.28,-1.63 4.02,-3.09 5.21,-4.4 0.87,-0.87 1.6,-1.76 2.2,-2.69 0.6,-0.92 1.76,-1.38 3.5,-1.38 0.33,0 1.08,0.14 2.28,0.41 1.19,0.27 1.79,0.79 1.79,1.55 0,0.54 -0.33,1.14 -0.98,1.79 -1.3,1.63 -2.5,3.15 -3.58,4.56 -0.87,1.2 -1.66,2.5 -2.36,3.91 -0.71,1.41 -1.06,2.55 -1.06,3.42 0,0.54 0.05,0.9 0.16,1.06 0.11,0.16 0.49,0.3 1.14,0.41 1.96,-0.11 4.83,-0.9 8.63,-2.36 3.8,-1.47 7.92,-3.2 12.38,-5.21 4.45,-2.01 8.85,-4.1 13.19,-6.27 4.34,-2.17 7.98,-4.02 10.91,-5.54 0.33,0 0.49,0.33 0.49,0.98 z"
       id="path5" />
  </g>
  <path
     class="st0"
     d="m 231.01826,86.098806 c 0.41,2.76 0.74,5.54 1.32,8.28 0.19,0.9 4.87,0.85 5.46,0.35 3.2,-2.78 6.37,-5.58 9.62,-8.31 3.25,-2.73 7.8,-8.15 12.37,-8.54 3.45,-0.29 -1.69,-1.07 -2.77,-0.98 -5.55,0.47 -8.85,3.96 -12.99,7.41 -3.91,3.25 -7.73,6.6 -11.57,9.94 l 5.46,0.35 c -0.57,-2.73 -0.91,-5.51 -1.32,-8.28 -0.15,-1.01 -5.63,-0.65 -5.56,-0.22 v 0 z"
     id="path6" />
  <g
     id="g26"
     transform="translate(4.8082619,-63.881194)">
    <path
       class="st0"
       d="m 88.75,231.17 v -9.78 h -3.78 v -0.98 h 8.7 v 0.98 h -3.78 v 9.78 z"
       id="path7" />
    <path
       class="st0"
       d="M 97,231.17 H 95.86 V 220.41 H 97 Z m 6.84,-4.96 h -6.96 v -1 h 6.96 z m -0.1,-5.8 h 1.12 v 10.76 h -1.12 z"
       id="path8" />
    <path
       class="st0"
       d="m 109.88,230.19 h 6.47 v 0.98 h -7.61 v -10.76 h 7.38 v 0.98 h -6.24 v 8.79 z m -0.12,-4.97 h 5.69 v 0.97 h -5.69 z"
       id="path9" />
    <path
       class="st0"
       d="m 123.83,231.17 v -10.76 h 1.14 v 10.76 z"
       id="path10" />
    <path
       class="st0"
       d="m 128.85,231.17 v -10.76 h 0.94 l 7.42,9.35 h -0.49 v -9.35 h 1.12 v 10.76 h -0.94 l -7.41,-9.35 h 0.49 v 9.35 h -1.14 z"
       id="path11" />
    <path
       class="st0"
       d="m 143.83,231.17 v -9.78 h -3.78 v -0.98 h 8.7 v 0.98 h -3.78 v 9.78 z"
       id="path12" />
    <path
       class="st0"
       d="m 152.08,230.19 h 6.47 v 0.98 h -7.61 v -10.76 h 7.38 v 0.98 h -6.24 v 8.79 z m -0.12,-4.97 h 5.69 v 0.97 h -5.69 z"
       id="path13" />
    <path
       class="st0"
       d="m 161.61,231.17 v -10.76 h 4.03 c 0.91,0 1.7,0.15 2.35,0.44 0.65,0.29 1.16,0.71 1.51,1.26 0.35,0.55 0.53,1.21 0.53,1.99 0,0.78 -0.18,1.41 -0.53,1.96 -0.35,0.55 -0.86,0.97 -1.51,1.26 -0.65,0.29 -1.44,0.44 -2.35,0.44 h -3.4 l 0.51,-0.52 v 3.94 h -1.14 z m 1.14,-3.84 -0.51,-0.54 h 3.37 c 1.08,0 1.89,-0.24 2.45,-0.71 0.56,-0.47 0.84,-1.13 0.84,-1.98 0,-0.85 -0.28,-1.53 -0.84,-2 -0.56,-0.47 -1.38,-0.71 -2.45,-0.71 h -3.37 l 0.51,-0.54 v 6.47 z m 6.21,3.84 -2.77,-3.9 h 1.23 l 2.78,3.9 h -1.25 z"
       id="path14" />
    <path
       class="st0"
       d="m 173.11,231.17 v -10.76 h 0.94 l 7.42,9.35 h -0.49 v -9.35 h 1.12 v 10.76 h -0.94 l -7.41,-9.35 h 0.49 v 9.35 h -1.14 z"
       id="path15" />
    <path
       class="st0"
       d="m 187.13,230.19 h 6.47 v 0.98 h -7.61 v -10.76 h 7.38 v 0.98 h -6.24 v 8.79 z M 187,225.22 h 5.69 v 0.97 H 187 Z"
       id="path16" />
    <path
       class="st0"
       d="m 198.75,231.17 v -9.78 h -3.78 v -0.98 h 8.7 v 0.98 h -3.78 v 9.78 z"
       id="path17" />
    <path
       class="st0"
       d="m 211.42,231.17 h -1.14 v -10.76 h 7.38 v 0.98 h -6.24 z m -0.13,-5.55 h 5.69 v 0.98 h -5.69 z"
       id="path18" />
    <path
       class="st0"
       d="m 225.1,231.26 c -0.81,0 -1.56,-0.14 -2.25,-0.41 -0.69,-0.27 -1.29,-0.66 -1.8,-1.15 -0.51,-0.5 -0.9,-1.08 -1.18,-1.74 -0.28,-0.66 -0.42,-1.39 -0.42,-2.17 0,-0.78 0.14,-1.51 0.42,-2.18 0.28,-0.66 0.68,-1.24 1.18,-1.74 0.51,-0.5 1.1,-0.88 1.79,-1.15 0.69,-0.27 1.44,-0.41 2.26,-0.41 0.82,0 1.56,0.14 2.25,0.41 0.69,0.27 1.28,0.65 1.79,1.15 0.51,0.49 0.9,1.07 1.18,1.74 0.28,0.67 0.42,1.39 0.42,2.18 0,0.79 -0.14,1.52 -0.42,2.18 -0.28,0.67 -0.68,1.25 -1.18,1.74 -0.51,0.49 -1.1,0.87 -1.79,1.14 -0.69,0.27 -1.44,0.41 -2.25,0.41 z m 0,-1.01 c 0.65,0 1.24,-0.11 1.79,-0.33 0.55,-0.22 1.02,-0.53 1.43,-0.94 0.41,-0.41 0.72,-0.88 0.95,-1.41 0.23,-0.53 0.34,-1.13 0.34,-1.78 0,-0.65 -0.11,-1.24 -0.34,-1.78 -0.23,-0.54 -0.54,-1.01 -0.95,-1.41 -0.41,-0.4 -0.88,-0.72 -1.43,-0.94 -0.55,-0.22 -1.15,-0.33 -1.79,-0.33 -0.64,0 -1.25,0.11 -1.8,0.33 -0.55,0.22 -1.04,0.53 -1.45,0.94 -0.41,0.41 -0.73,0.88 -0.95,1.41 -0.22,0.53 -0.34,1.13 -0.34,1.78 0,0.65 0.11,1.22 0.34,1.77 0.23,0.55 0.54,1.02 0.95,1.42 0.41,0.4 0.89,0.72 1.45,0.94 0.55,0.22 1.15,0.33 1.8,0.33 z"
       id="path19" />
    <path
       class="st0"
       d="m 233.68,231.17 v -10.76 h 4.03 c 0.91,0 1.7,0.15 2.35,0.44 0.65,0.29 1.16,0.71 1.51,1.26 0.35,0.55 0.53,1.21 0.53,1.99 0,0.78 -0.18,1.41 -0.53,1.96 -0.35,0.55 -0.86,0.97 -1.51,1.26 -0.65,0.29 -1.44,0.44 -2.35,0.44 h -3.4 l 0.51,-0.52 v 3.94 h -1.14 z m 1.13,-3.84 -0.51,-0.54 h 3.37 c 1.08,0 1.89,-0.24 2.45,-0.71 0.56,-0.47 0.84,-1.13 0.84,-1.98 0,-0.85 -0.28,-1.53 -0.84,-2 -0.56,-0.47 -1.38,-0.71 -2.45,-0.71 h -3.37 l 0.51,-0.54 v 6.47 z m 6.21,3.84 -2.77,-3.9 h 1.23 l 2.78,3.9 h -1.25 z"
       id="path20" />
    <path
       class="st0"
       d="m 250.72,231.17 h -1.14 v -10.76 h 1.14 z m 6.84,-4.96 h -6.96 v -1 h 6.96 z m -0.1,-5.8 h 1.12 v 10.76 h -1.12 z"
       id="path21" />
    <path
       class="st0"
       d="m 266.8,231.26 c -1.37,0 -2.46,-0.39 -3.24,-1.18 -0.79,-0.79 -1.18,-1.96 -1.18,-3.5 v -6.16 h 1.14 v 6.12 c 0,1.27 0.29,2.21 0.86,2.81 0.57,0.6 1.38,0.91 2.43,0.91 1.05,0 1.87,-0.3 2.44,-0.91 0.57,-0.6 0.86,-1.54 0.86,-2.81 v -6.12 h 1.11 v 6.16 c 0,1.55 -0.39,2.72 -1.18,3.5 -0.78,0.79 -1.86,1.18 -3.24,1.18 z"
       id="path22" />
    <path
       class="st0"
       d="m 275.03,231.17 v -10.76 h 0.94 l 4.92,8.39 h -0.49 l 4.87,-8.39 h 0.94 v 10.76 h -1.09 v -9.05 h 0.26 l -4.49,7.69 h -0.54 l -4.52,-7.69 h 0.29 v 9.05 z"
       id="path23" />
    <path
       class="st0"
       d="m 288.37,231.17 4.92,-10.76 h 1.12 l 4.92,10.76 h -1.2 l -4.52,-10.1 h 0.46 l -4.52,10.1 z m 1.94,-2.88 0.34,-0.92 h 6.26 l 0.34,0.92 h -6.93 z"
       id="path24" />
    <path
       class="st0"
       d="m 301.5,231.17 v -10.76 h 0.94 l 7.42,9.35 h -0.49 v -9.35 h 1.12 v 10.76 h -0.94 l -7.41,-9.35 h 0.49 v 9.35 h -1.14 z"
       id="path25" />
    <path
       class="st0"
       d="m 317.35,231.26 c -0.8,0 -1.57,-0.13 -2.3,-0.39 -0.73,-0.26 -1.3,-0.6 -1.7,-1.01 l 0.45,-0.88 c 0.38,0.37 0.89,0.68 1.53,0.93 0.64,0.25 1.31,0.38 2.02,0.38 0.71,0 1.23,-0.08 1.65,-0.25 0.42,-0.17 0.74,-0.4 0.94,-0.68 0.2,-0.29 0.3,-0.61 0.3,-0.95 0,-0.42 -0.12,-0.76 -0.36,-1.01 -0.24,-0.26 -0.56,-0.46 -0.95,-0.61 -0.39,-0.15 -0.82,-0.28 -1.29,-0.39 -0.47,-0.11 -0.94,-0.23 -1.42,-0.36 -0.47,-0.13 -0.9,-0.3 -1.3,-0.52 -0.39,-0.21 -0.71,-0.5 -0.95,-0.85 -0.24,-0.35 -0.36,-0.82 -0.36,-1.39 0,-0.53 0.14,-1.02 0.42,-1.47 0.28,-0.45 0.71,-0.8 1.3,-1.08 0.58,-0.27 1.33,-0.41 2.25,-0.41 0.6,0 1.2,0.08 1.8,0.25 0.59,0.17 1.11,0.4 1.54,0.7 l -0.38,0.91 c -0.46,-0.31 -0.95,-0.53 -1.47,-0.68 -0.52,-0.15 -1.02,-0.22 -1.5,-0.22 -0.65,0 -1.18,0.09 -1.6,0.26 -0.42,0.17 -0.73,0.41 -0.93,0.7 -0.2,0.29 -0.3,0.62 -0.3,0.99 0,0.42 0.12,0.76 0.36,1.01 0.24,0.26 0.56,0.46 0.95,0.6 0.39,0.14 0.83,0.27 1.3,0.38 0.47,0.11 0.94,0.24 1.41,0.37 0.47,0.13 0.9,0.3 1.29,0.51 0.39,0.21 0.71,0.49 0.95,0.84 0.24,0.35 0.36,0.8 0.36,1.37 0,0.52 -0.14,1.01 -0.43,1.45 -0.29,0.45 -0.72,0.8 -1.31,1.08 -0.59,0.27 -1.34,0.41 -2.27,0.41 z"
       id="path26" />
  </g>
</svg>
